<svg xmlns="http://www.w3.org/2000/svg" width="256" height="256" viewBox="0 0 256 256" role="img" aria-labelledby="title desc">
  <title id="title">Family Expense PWA</title>
  <desc id="desc">Bieu tuong ngoi nha, vi tien va dong xu cho ung dung quan ly chi tieu gia dinh.</desc>
  <defs>
    <linearGradient id="bg" x1="32" y1="24" x2="224" y2="232" gradientUnits="userSpaceOnUse">
      <stop offset="0" stop-color="#0f766e" />
      <stop offset="1" stop-color="#26a17b" />
    </linearGradient>
    <linearGradient id="wallet" x1="74" y1="116" x2="182" y2="188" gradientUnits="userSpaceOnUse">
      <stop offset="0" stop-color="#f7fbf8" />
      <stop offset="1" stop-color="#dff3eb" />
    </linearGradient>
    <filter id="shadow" x="-20%" y="-20%" width="140%" height="140%">
      <feDropShadow dx="0" dy="8" stdDeviation="12" flood-color="#0a3a34" flood-opacity="0.18" />
    </filter>
  </defs>

  <rect width="256" height="256" rx="64" fill="url(#bg)" />
  <path d="M53 106 128 50l75 56" fill="none" stroke="#dff3eb" stroke-linecap="round" stroke-linejoin="round" stroke-width="18" />
  <path d="M76 102v44c0 10 8 18 18 18h68c10 0 18-8 18-18v-44" fill="none" stroke="#dff3eb" stroke-linecap="round" stroke-linejoin="round" stroke-width="18" />

  <g filter="url(#shadow)">
    <rect x="70" y="118" width="116" height="74" rx="22" fill="url(#wallet)" />
    <path d="M154 132h30c8 0 14 6 14 14v18h-44c-10 0-18-8-18-18s8-14 18-14Z" fill="#b9e7d6" />
    <circle cx="167" cy="148" r="7" fill="#0f766e" />
  </g>

  <g transform="translate(154 64)">
    <circle cx="0" cy="0" r="30" fill="#f6c453" />
    <circle cx="0" cy="0" r="21" fill="#ffe39a" />
    <path d="M0-10v20M-7-5c2-3 6-5 11-5 5 0 9 2 9 6 0 8-20 4-20 12 0 4 4 7 10 7 5 0 9-2 11-5" fill="none" stroke="#8d6518" stroke-linecap="round" stroke-linejoin="round" stroke-width="4" />
  </g>
</svg>
